<?xml version="1.0" encoding="UTF-8"?>
<svg width="40px" height="40px" viewBox="0 0 40 40" version="1.1" xmlns="http://www.w3.org/2000/svg" xmlns:xlink="http://www.w3.org/1999/xlink">
    <!-- Generator: sketchtool 55.2 (78181) - https://sketchapp.com -->
    <title>4A73FC3E-BF04-4DFC-928F-1FDFFA640552</title>
    <desc>Created with sketchtool.</desc>
    <g id="Page-1" stroke="none" stroke-width="1" fill="none" fill-rule="evenodd">
        <g id="Desktop" transform="translate(-392.000000, -310.000000)" fill-rule="nonzero">
            <g id="sobremi" transform="translate(32.000000, 115.000000)">
                <g id="Group-5" transform="translate(259.000000, 58.000000)">
                    <g id="Group-4">
                        <g id="social" transform="translate(1.000000, 137.000000)">
                            <g id="entypo-social:twitter-with-circle" transform="translate(100.000000, 0.000000)">
                                <g id="Icon" fill="#1EA1F2">
                                    <path d="M20,0.8 C9.396,0.8 0.8,9.396 0.8,20 C0.8,30.604 9.396,39.2 20,39.2 C30.604,39.2 39.2,30.604 39.2,20 C39.2,9.396 30.604,0.8 20,0.8 Z M27.81,16.528 C27.818,16.692 27.82,16.856 27.82,17.016 C27.82,22.016 24.018,27.7780148 17.062,27.7780148 C15.0065876,27.7814177 12.9939329,27.1910946 11.266,26.078 C11.56,26.114 11.862,26.128 12.168,26.128 C13.94,26.128 15.57,25.526 16.864,24.51 C15.2474865,24.4782533 13.8291073,23.4245084 13.332,21.886 C13.8983115,21.9936846 14.4817006,21.971115 15.038,21.82 C13.2733335,21.4631585 12.0044421,19.9123843 12.004,18.112 L12.004,18.066 C12.514,18.348 13.098,18.52 13.718,18.54 C12.0522641,17.4311479 11.5393074,15.2162269 12.548,13.488 C14.4690057,15.8500494 17.3013592,17.28694 20.342,17.442 C19.9489547,15.7736434 20.7270502,14.0495395 22.2381423,13.2405284 C23.7492344,12.4315173 25.6154803,12.739889 26.786,13.992 C27.6323383,13.824552 28.4439545,13.5141088 29.186,13.074 C28.9039237,13.9502687 28.3133482,14.6943512 27.524,15.168 C28.2736931,15.077704 29.0057379,14.8761557 29.696,14.57 C29.1889723,15.3297897 28.5502696,15.9928755 27.81,16.528 L27.81,16.528 Z" id="Icon-Shape"></path>
                                </g>
                                <rect id="ViewBox" x="0" y="0" width="40" height="40"></rect>
                            </g>
                        </g>
                    </g>
                </g>
            </g>
        </g>
    </g>
</svg>